<svg width="365" height="51" viewBox="0 0 365 51" fill="none" xmlns="http://www.w3.org/2000/svg">
<path fill-rule="evenodd" clip-rule="evenodd" d="M275.302 15.8527C274.185 18.7393 273.626 21.6957 273.626 24.7219C273.626 27.8878 274.231 31.0071 275.442 34.08C276.652 37.1062 278.352 39.8529 280.54 42.3205C282.775 44.7414 285.405 46.6969 288.431 48.1867C291.504 49.6299 294.88 50.3515 298.557 50.3515C301.397 50.3515 304.261 49.9094 307.147 49.0249C310.034 48.0935 312.618 46.7666 314.899 45.0442C317.18 43.3216 318.81 41.2498 319.788 38.8289L308.683 32.1943C308.125 33.6842 307.31 34.8712 306.239 35.756C305.168 36.6405 303.981 37.2924 302.678 37.7112C301.374 38.0836 300.094 38.2699 298.837 38.2699C297.068 38.2699 295.461 37.9207 294.018 37.2225C292.621 36.5242 291.434 35.5698 290.456 34.3592C289.479 33.1022 288.734 31.6822 288.222 30.0992C287.71 28.5163 287.454 26.8635 287.454 25.1409C287.454 23.6045 287.663 22.0681 288.082 20.5317C288.548 18.9953 289.223 17.5986 290.107 16.3416C291.038 15.0845 292.202 14.0836 293.599 13.3386C295.042 12.5471 296.742 12.1514 298.697 12.1514C299.954 12.1514 301.234 12.3376 302.538 12.7101C303.888 13.036 305.122 13.6412 306.239 14.5259C307.403 15.4104 308.288 16.6675 308.893 18.297L319.299 10.8944C317.576 7.63539 314.945 5.02818 311.407 3.07277C307.869 1.0708 303.725 0.0698242 298.976 0.0698242C295.019 0.0698242 291.458 0.791462 288.292 2.23474C285.172 3.63147 282.518 5.51703 280.33 7.89144C278.142 10.2659 276.466 12.9196 275.302 15.8527ZM365 49.9327V0.349138H351.381V18.6461H334.76V0.349138H321.142V49.9327H334.76V30.5182H351.381V49.9327H365ZM274.26 38.0606V49.9327H238.923V0.349138H273.631V12.2212H252.541V19.2048H270.558V30.2389H252.541V38.0606H274.26ZM223.208 12.2212H237.455V0.349138H195.274V12.2212H209.59V49.9327H223.208V12.2212Z" fill="black"/>
<path fill-rule="evenodd" clip-rule="evenodd" d="M102.73 48.6059C105.662 49.7232 108.735 50.2819 111.948 50.2819C116.534 50.2819 120.607 48.7863 124.169 45.7954V49.9328H135.413V23.5347H115.021V33.3118H123.631C122.334 34.6572 120.93 35.7515 119.42 36.5939C117.418 37.665 115.323 38.2003 113.135 38.2003C111.412 38.2003 109.853 37.8975 108.456 37.2922C107.059 36.6406 105.849 35.7561 104.825 34.6387C103.847 33.4747 103.079 32.1012 102.52 30.5183C101.961 28.9353 101.682 27.1661 101.682 25.2107C101.682 23.3019 101.938 21.556 102.45 19.973C103.009 18.3435 103.777 16.9468 104.755 15.7829C105.779 14.619 106.966 13.7111 108.316 13.0593C109.666 12.4075 111.156 12.0816 112.786 12.0816C114.974 12.0816 117.046 12.6868 119.001 13.8973C120.957 15.0613 122.423 16.6209 123.401 18.5763L133.527 10.8246C131.758 7.47243 129.057 4.84197 125.426 2.9331C121.795 0.977701 117.744 0 113.275 0C109.69 0 106.361 0.628522 103.288 1.88557C100.215 3.14261 97.5149 4.91179 95.1873 7.19309C92.9059 9.42785 91.1133 12.0351 89.8098 15.0147C88.5062 17.9944 87.8546 21.2301 87.8546 24.7219C87.8546 28.7724 88.4829 32.3806 89.7401 35.5465C91.0437 38.6657 92.8127 41.3428 95.0477 43.5775C97.2824 45.7659 99.8429 47.4419 102.73 48.6059ZM160.99 50.3515C157.218 50.3515 153.796 49.6533 150.724 48.2564C147.651 46.8133 144.997 44.9044 142.763 42.5301C140.574 40.1092 138.875 37.4088 137.665 34.4292C136.501 31.4029 135.919 28.2835 135.919 25.0711C135.919 21.7655 136.547 18.6229 137.804 15.6432C139.061 12.6636 140.807 10.0098 143.042 7.68197C145.323 5.30756 148 3.44525 151.073 2.0951C154.192 0.744937 157.591 0.0698578 161.269 0.0698578C165.04 0.0698578 168.462 0.791496 171.535 2.23477C174.608 3.63147 177.238 5.54032 179.426 7.96131C181.615 10.3823 183.291 13.1059 184.455 16.1321C185.665 19.1117 186.27 22.1846 186.27 25.3504C186.27 28.6094 185.642 31.7288 184.385 34.7084C183.174 37.6879 181.428 40.365 179.147 42.7397C176.912 45.0673 174.258 46.9299 171.186 48.3264C168.113 49.6766 164.714 50.3515 160.99 50.3515ZM149.746 25.2107C149.746 26.8868 149.979 28.5163 150.444 30.0993C150.91 31.6357 151.608 33.0323 152.54 34.2893C153.471 35.4999 154.635 36.4776 156.031 37.2225C157.475 37.9208 159.174 38.2699 161.129 38.2699C163.085 38.2699 164.784 37.8975 166.227 37.1526C167.671 36.4077 168.835 35.4069 169.719 34.1497C170.65 32.8461 171.325 31.4261 171.744 29.8898C172.21 28.3068 172.443 26.7006 172.443 25.0711C172.443 23.395 172.21 21.7888 171.744 20.2524C171.279 18.716 170.58 17.3426 169.649 16.1321C168.718 14.8751 167.531 13.8974 166.088 13.199C164.644 12.5007 162.968 12.1515 161.06 12.1515C159.104 12.1515 157.405 12.5239 155.962 13.2688C154.565 14.0137 153.401 15.0147 152.47 16.2718C151.538 17.4823 150.84 18.879 150.374 20.4619C149.956 21.9983 149.746 23.5813 149.746 25.2107ZM187.782 49.9328V37.083H198.537V49.9328H187.782ZM47.4872 49.9328V0.349169H70.2536C72.6748 0.349169 74.9095 0.838023 76.958 1.81572C79.0065 2.79343 80.7758 4.12032 82.2656 5.79637C83.7553 7.42586 84.896 9.26488 85.6876 11.3134C86.5254 13.3619 86.9445 15.4337 86.9445 17.5288C86.9445 19.4376 86.665 21.2766 86.1063 23.0458C85.5476 24.815 84.7331 26.4445 83.6621 27.9343C82.5914 29.3776 81.3111 30.6346 79.8213 31.7054L90.2965 49.9328H75.3516L66.6224 34.7084H61.1053V49.9328H47.4872ZM61.1053 22.8363H69.6949C70.2536 22.8363 70.7893 22.6268 71.3013 22.2078C71.8133 21.7888 72.2324 21.1835 72.5582 20.3921C72.9307 19.6006 73.1169 18.6462 73.1169 17.5288C73.1169 16.3649 72.9074 15.4104 72.4886 14.6655C72.1162 13.874 71.6271 13.2688 71.0218 12.8498C70.4631 12.4308 69.9045 12.2212 69.3458 12.2212H61.1053V22.8363ZM31.0769 0.349169H15.8527L0 49.9328H13.8973L16.8305 40.2255H30.0294L33.0323 49.9328H46.8599L31.0769 0.349169ZM23.4648 13.6878L27.8645 31.1468H18.8557L23.4648 13.6878Z" fill="#00B6CC"/>
</svg>
