<svg width="90" height="16" viewBox="0 0 90 16" fill="none" xmlns="http://www.w3.org/2000/svg">
<path d="M0.66 15V0.999999H6.72C7.97333 0.999999 9.05333 1.20667 9.96 1.62C10.8667 2.02 11.5667 2.6 12.06 3.36C12.5533 4.12 12.8 5.02667 12.8 6.08C12.8 7.12 12.5533 8.02 12.06 8.78C11.5667 9.52667 10.8667 10.1 9.96 10.5C9.05333 10.9 7.97333 11.1 6.72 11.1H2.46L3.9 9.68V15H0.66ZM9.56 15L6.06 9.92H9.52L13.06 15H9.56ZM3.9 10.04L2.46 8.52H6.54C7.54 8.52 8.28667 8.30667 8.78 7.88C9.27333 7.44 9.52 6.84 9.52 6.08C9.52 5.30667 9.27333 4.70667 8.78 4.28C8.28667 3.85333 7.54 3.64 6.54 3.64H2.46L3.9 2.1V10.04ZM18.347 6.64H25.087V9.16H18.347V6.64ZM18.587 12.4H26.207V15H15.367V0.999999H25.947V3.6H18.587V12.4ZM29.6864 7.98C29.1531 7.98 28.6931 7.8 28.3064 7.44C27.9331 7.06667 27.7464 6.59333 27.7464 6.02C27.7464 5.44667 27.9331 4.98667 28.3064 4.64C28.6931 4.28 29.1531 4.1 29.6864 4.1C30.2331 4.1 30.6931 4.28 31.0664 4.64C31.4397 4.98667 31.6264 5.44667 31.6264 6.02C31.6264 6.59333 31.4397 7.06667 31.0664 7.44C30.6931 7.8 30.2331 7.98 29.6864 7.98ZM29.6864 15.16C29.1531 15.16 28.6931 14.98 28.3064 14.62C27.9331 14.2467 27.7464 13.7733 27.7464 13.2C27.7464 12.6267 27.9331 12.1667 28.3064 11.82C28.6931 11.46 29.1531 11.28 29.6864 11.28C30.2331 11.28 30.6931 11.46 31.0664 11.82C31.4397 12.1667 31.6264 12.6267 31.6264 13.2C31.6264 13.7733 31.4397 14.2467 31.0664 14.62C30.6931 14.98 30.2331 15.16 29.6864 15.16ZM40.6608 15.24C39.5808 15.24 38.5741 15.0667 37.6408 14.72C36.7208 14.36 35.9208 13.8533 35.2408 13.2C34.5608 12.5467 34.0274 11.78 33.6408 10.9C33.2674 10.02 33.0808 9.05333 33.0808 8C33.0808 6.94667 33.2674 5.98 33.6408 5.1C34.0274 4.22 34.5608 3.45333 35.2408 2.8C35.9341 2.14667 36.7408 1.64667 37.6608 1.3C38.5808 0.939999 39.5874 0.76 40.6808 0.76C41.8941 0.76 42.9874 0.973333 43.9608 1.4C44.9474 1.81333 45.7741 2.42667 46.4408 3.24L44.3608 5.16C43.8808 4.61333 43.3474 4.20667 42.7608 3.94C42.1741 3.66 41.5341 3.52 40.8408 3.52C40.1874 3.52 39.5874 3.62667 39.0408 3.84C38.4941 4.05333 38.0208 4.36 37.6208 4.76C37.2208 5.16 36.9074 5.63333 36.6808 6.18C36.4674 6.72667 36.3608 7.33333 36.3608 8C36.3608 8.66667 36.4674 9.27333 36.6808 9.82C36.9074 10.3667 37.2208 10.84 37.6208 11.24C38.0208 11.64 38.4941 11.9467 39.0408 12.16C39.5874 12.3733 40.1874 12.48 40.8408 12.48C41.5341 12.48 42.1741 12.3467 42.7608 12.08C43.3474 11.8 43.8808 11.38 44.3608 10.82L46.4408 12.74C45.7741 13.5533 44.9474 14.1733 43.9608 14.6C42.9874 15.0267 41.8874 15.24 40.6608 15.24ZM48.7786 12.36C49.5519 12.5867 50.1986 12.6533 50.7186 12.56C51.2519 12.4533 51.7253 12.08 52.1386 11.44L52.8186 10.42L53.1186 10.08L57.7586 0.999999H60.9386L54.9786 12.08C54.4453 13.08 53.8119 13.8467 53.0786 14.38C52.3586 14.9133 51.5653 15.2133 50.6986 15.28C49.8319 15.36 48.9319 15.2067 47.9986 14.82L48.7786 12.36ZM53.0586 12.78L46.7386 0.999999H50.1986L54.8386 10.4L53.0586 12.78ZM62.4783 15V0.999999H68.5383C69.7916 0.999999 70.8716 1.20667 71.7783 1.62C72.6849 2.02 73.3849 2.6 73.8783 3.36C74.3716 4.12 74.6183 5.02667 74.6183 6.08C74.6183 7.12 74.3716 8.02 73.8783 8.78C73.3849 9.54 72.6849 10.1267 71.7783 10.54C70.8716 10.94 69.7916 11.14 68.5383 11.14H64.2783L65.7183 9.68V15H62.4783ZM65.7183 10.04L64.2783 8.5H68.3583C69.3583 8.5 70.1049 8.28667 70.5983 7.86C71.0916 7.43333 71.3383 6.84 71.3383 6.08C71.3383 5.30667 71.0916 4.70667 70.5983 4.28C70.1049 3.85333 69.3583 3.64 68.3583 3.64H64.2783L65.7183 2.1V10.04ZM83.5709 15.24C82.4909 15.24 81.4843 15.0667 80.5509 14.72C79.6309 14.36 78.8309 13.8533 78.1509 13.2C77.4709 12.5467 76.9376 11.78 76.5509 10.9C76.1776 10.02 75.9909 9.05333 75.9909 8C75.9909 6.94667 76.1776 5.98 76.5509 5.1C76.9376 4.22 77.4709 3.45333 78.1509 2.8C78.8443 2.14667 79.6509 1.64667 80.5709 1.3C81.4909 0.939999 82.4976 0.76 83.5909 0.76C84.8043 0.76 85.8976 0.973333 86.8709 1.4C87.8576 1.81333 88.6843 2.42667 89.3509 3.24L87.2709 5.16C86.7909 4.61333 86.2576 4.20667 85.6709 3.94C85.0843 3.66 84.4443 3.52 83.7509 3.52C83.0976 3.52 82.4976 3.62667 81.9509 3.84C81.4043 4.05333 80.9309 4.36 80.5309 4.76C80.1309 5.16 79.8176 5.63333 79.5909 6.18C79.3776 6.72667 79.2709 7.33333 79.2709 8C79.2709 8.66667 79.3776 9.27333 79.5909 9.82C79.8176 10.3667 80.1309 10.84 80.5309 11.24C80.9309 11.64 81.4043 11.9467 81.9509 12.16C82.4976 12.3733 83.0976 12.48 83.7509 12.48C84.4443 12.48 85.0843 12.3467 85.6709 12.08C86.2576 11.8 86.7909 11.38 87.2709 10.82L89.3509 12.74C88.6843 13.5533 87.8576 14.1733 86.8709 14.6C85.8976 15.0267 84.7976 15.24 83.5709 15.24Z" fill="#00B6CC"/>
</svg>
