<!-- icon666.com - MILLIONS OF FREE VECTOR ICONS --><svg id="Layer_1" enable-background="new 0 0 512 512" viewBox="0 0 512 512" xmlns="http://www.w3.org/2000/svg"><path d="m511.804 162.765c-.793-4.216-3.86-7.527-8.009-8.64l-350.842-94.008c-15.61-4.189-31.948-2.018-46.002 6.095-14.054 8.115-24.097 21.18-28.279 36.793l-10.193 38.037c0 .002-.001.003-.001.004s0 .003-.001.005l-4.702 17.547c-4.527 16.896 5.536 34.327 22.432 38.856l33.93 9.091-4.148 15.479c-4.527 16.894 5.536 34.327 22.432 38.856l45.209 12.114-5.865 21.889c-2.514 9.381 1.859 18.95 9.954 23.517l-3.803 3.945c-2.75 2.854-6.155 4.302-10.119 4.302h-89.344v-12.126c0-15.383-12.516-27.896-27.899-27.896h-49.635c-3.822 0-6.919 3.097-6.919 6.919v153.509c0 3.822 3.097 6.919 6.919 6.919h49.635c15.383 0 27.899-12.514 27.899-27.896v-22.135h97.716c19.923 0 37.761-7.583 51.588-21.928l38.704-40.157 2.014.539c1.786.48 3.601.716 5.408.716 3.615 0 7.191-.95 10.417-2.813 4.836-2.793 8.291-7.286 9.73-12.655l5.865-21.888 67.029 17.96c2.027.543 4.061.802 6.068.802 7.538 0 14.591-3.698 18.971-9.731 5.523 1.113 11.043 1.659 16.5 1.659 37.043 0 71.038-24.759 81.072-62.203 5.944-22.19 2.557-45.498-9.194-64.984l21.136-15.525c3.462-2.544 5.122-6.745 4.327-10.968zm-434.664-.588 2.912-10.869 241.289 64.654-26.695 23.015-164.245-44.009c-.003-.001-.007-.001-.011-.002l-40.602-10.879c-9.527-2.554-15.2-12.383-12.648-21.91zm-20.586 277.953h-42.716v-139.671h42.716c7.752 0 14.061 6.306 14.061 14.059v19.023c0 .008-.002.015-.002.023v63.455c0 .008.002.015.002.023v29.032c0 7.75-6.309 14.056-14.061 14.056zm167.239-67.725c-11.315 11.741-25.32 17.694-41.624 17.694h-97.716v-49.617h89.345c7.755 0 14.698-2.953 20.083-8.536l8.538-8.858 54.766 14.673zm68.736-70.234-5.865 21.887c-.482 1.797-1.649 3.309-3.284 4.252-1.631.944-3.523 1.205-5.324.716l-81.955-21.957c-3.743-1.004-5.973-4.865-4.971-8.608l5.865-21.889 59.943 16.061zm83.975 8.175-141.044-37.792-41.566-11.138c-.001 0-.003-.001-.005-.001l-51.885-13.902c-9.529-2.554-15.203-12.383-12.651-21.91l4.149-15.479 161.099 43.166c.572.154 1.154.225 1.734.229.019.001.037.007.056.007.061 0 .118-.03.179-.032.655-.017 1.294-.142 1.918-.343.184-.059.358-.119.537-.193.672-.278 1.319-.623 1.884-1.11l36.599-31.554 68.194 18.27-4.172 15.571-13.24 49.407c-1.373 5.126-6.668 8.174-11.786 6.804zm98.654-112.878c9.291 16.052 11.863 35.072 7.011 53.189-9.399 35.065-43.944 56.806-79.052 51.011l1.604-5.983 15.508-57.873 31.798-23.356zm-62.401 28.662-75.203-20.149-253.921-68.038 8.403-31.358c5.599-20.892 24.561-34.703 45.23-34.703 4 0 8.063.516 12.106 1.599l345.259 92.514zm-363.613 99.775v.727c0 3.822-3.097 6.919-6.919 6.919s-6.919-3.097-6.919-6.919v-.727c0-3.822 3.097-6.919 6.919-6.919s6.919 3.097 6.919 6.919zm0 29.351v.725c0 3.822-3.097 6.919-6.919 6.919s-6.919-3.097-6.919-6.919v-.725c0-3.822 3.097-6.919 6.919-6.919s6.919 3.097 6.919 6.919zm0 29.349v.727c0 3.822-3.097 6.919-6.919 6.919s-6.919-3.097-6.919-6.919v-.727c0-3.822 3.097-6.919 6.919-6.919s6.919 3.097 6.919 6.919zm0 29.352v.727c0 3.822-3.097 6.919-6.919 6.919s-6.919-3.097-6.919-6.919v-.727c0-3.822 3.097-6.919 6.919-6.919s6.919 3.097 6.919 6.919zm242.942-275.883c.996-3.691 4.786-5.876 8.484-4.876l.7.189c3.689.998 5.872 4.795 4.876 8.484-.833 3.086-3.626 5.117-6.676 5.117-.597 0-1.205-.079-1.809-.241l-.7-.189c-3.688-.998-5.871-4.795-4.875-8.484zm28.349 7.597c.996-3.689 4.795-5.878 8.484-4.876l.7.189c3.689.998 5.872 4.795 4.876 8.484-.833 3.086-3.626 5.117-6.676 5.117-.597 0-1.205-.079-1.809-.241l-.7-.189c-3.688-.998-5.871-4.795-4.875-8.484zm28.342 7.621c.984-3.694 4.775-5.885 8.466-4.908l.703.187c3.691.984 5.89 4.773 4.908 8.466-.824 3.097-3.624 5.142-6.682 5.142-.59 0-1.187-.077-1.784-.234l-.703-.187c-3.692-.984-5.89-4.772-4.908-8.466zm28.354 7.593c.986-3.691 4.775-5.89 8.468-4.901l.7.187c3.691.984 5.885 4.777 4.901 8.468-.827 3.095-3.624 5.137-6.68 5.137-.59 0-1.191-.077-1.788-.236l-.7-.187c-3.692-.984-5.886-4.777-4.901-8.468z"></path></svg>