<!-- icon666.com - MILLIONS OF FREE VECTOR ICONS --><svg viewBox="0 0 64 64" xmlns="http://www.w3.org/2000/svg"><g id="Cctv_Camera-Security-Security_Camera-Smartphone-Keypad" data-name="Cctv Camera-Security-Security Camera-Smartphone-Keypad"><path d="m18 6h2v2h-2z"></path><path d="m22 6h8v2h-8z"></path><path d="m52.421 27.043a6 6 0 1 0 -8.842 0 2.994 2.994 0 0 0 -2.579 2.957v4a1 1 0 0 0 1 1h12a1 1 0 0 0 1-1v-4a2.994 2.994 0 0 0 -2.579-2.957zm-4.421-8.043a4 4 0 1 1 -4 4 4 4 0 0 1 4-4zm5 14h-10v-3a1 1 0 0 1 1-1h8a1 1 0 0 1 1 1z"></path><circle cx="48" cy="23" r="2"></circle><path d="m48 12a13.884 13.884 0 0 0 -5 .94v-3.94a7.008 7.008 0 0 0 -7-7h-20a7.008 7.008 0 0 0 -7 7v19.3a3.026 3.026 0 0 0 -1.45 1.44l-4.54 9.85a11.085 11.085 0 0 0 -1.01 4.6v17.81h2v-17.81a9.038 9.038 0 0 1 .83-3.76l4.17-9.05v13.62a6.994 6.994 0 0 0 .89 3.41.992.992 0 0 0 1.79.05l4.49-7.75a2.054 2.054 0 0 1 2.73-.73 1.968 1.968 0 0 1 .94 1.21 2.016 2.016 0 0 1 -.21 1.52l-4.5 7.79a1.031 1.031 0 0 0 .01 1.02l2.14 3.55a5.049 5.049 0 0 1 .72 2.58v4.34h2v-4.34a7.143 7.143 0 0 0 -1-3.61l-1.23-2.04h18.23a7.008 7.008 0 0 0 7-7v-5.94a13.993 13.993 0 1 0 5-27.06zm-7 33a5 5 0 0 1 -5 5h-18.27l3.44-5.95a2.961 2.961 0 0 0 2.83 3.95h4a3 3 0 0 0 0-6h-4a2.982 2.982 0 0 0 -2.42 1.25 4 4 0 0 0 -7.15-3.54l-3.4 5.88a5.828 5.828 0 0 1 -.03-.59v-36a5 5 0 0 1 5-5h20a5 5 0 0 1 5 5v4.89a13.975 13.975 0 0 0 0 24.22zm-18 0a1 1 0 0 1 1-1h4a1 1 0 0 1 0 2h-4a1 1 0 0 1 -1-1zm25-7a12 12 0 1 1 12-12 12.01 12.01 0 0 1 -12 12z"></path><path d="m23.6 12.2a.99.99 0 0 0 -1.2 0l-8 6 1.2 1.6 1.4-1.05v6.25a2.006 2.006 0 0 0 2 2h8a2.006 2.006 0 0 0 2-2v-6.25l1.4 1.05 1.2-1.6zm3.4 12.8h-8v-7.75l4-3 4 3z"></path><path d="m22 17h2v2h-2z"></path><path d="m24.414 29.172-1.414 1.414-1.414-1.414-1.414 1.414 1.414 1.414-1.414 1.414 1.414 1.414 1.414-1.414 1.414 1.414 1.414-1.414-1.414-1.414 1.414-1.414z"></path><path d="m17.414 29.172-1.414 1.414-1.414-1.414-1.414 1.414 1.414 1.414-1.414 1.414 1.414 1.414 1.414-1.414 1.414 1.414 1.414-1.414-1.414-1.414 1.414-1.414z"></path><path d="m31.414 29.172-1.414 1.414-1.414-1.414-1.414 1.414 1.414 1.414-1.414 1.414 1.414 1.414 1.414-1.414 1.414 1.414 1.414-1.414-1.414-1.414 1.414-1.414z"></path></g></svg>