<svg width="44" height="27" viewBox="0 0 44 27" fill="none" xmlns="http://www.w3.org/2000/svg">
<path d="M1.304 26V8.784H6.296V26H1.304ZM3.8 6.384C2.88267 6.384 2.136 6.11733 1.56 5.584C0.984 5.05067 0.696 4.38933 0.696 3.6C0.696 2.81067 0.984 2.14933 1.56 1.616C2.136 1.08267 2.88267 0.815998 3.8 0.815998C4.71733 0.815998 5.464 1.072 6.04 1.584C6.616 2.07467 6.904 2.71467 6.904 3.504C6.904 4.336 6.616 5.02933 6.04 5.584C5.48533 6.11733 4.73867 6.384 3.8 6.384ZM17.489 26.384C15.9317 26.384 14.385 26.1813 12.849 25.776C11.3343 25.3493 10.033 24.752 8.945 23.984L10.993 20.016C11.8463 20.6347 12.8277 21.1253 13.937 21.488C15.0677 21.8507 16.209 22.032 17.361 22.032C18.6623 22.032 19.6863 21.776 20.433 21.264C21.1797 20.752 21.553 20.0373 21.553 19.12C21.553 18.544 21.4037 18.032 21.105 17.584C20.8063 17.136 20.273 16.7947 19.505 16.56C18.7583 16.3253 17.7023 16.208 16.337 16.208H10.609L11.761 3.6H25.425V7.76H13.617L16.305 5.392L15.505 14.384L12.817 12.016H17.553C19.7717 12.016 21.553 12.3253 22.897 12.944C24.2623 13.5413 25.2543 14.3627 25.873 15.408C26.4917 16.4533 26.801 17.6373 26.801 18.96C26.801 20.2827 26.4703 21.5093 25.809 22.64C25.1477 23.7493 24.1237 24.656 22.737 25.36C21.3717 26.0427 19.6223 26.384 17.489 26.384ZM35.7523 26.256C34.2803 26.256 32.8616 26.0853 31.4963 25.744C30.1523 25.3813 29.0856 24.9333 28.2963 24.4L29.9603 20.816C30.7496 21.3067 31.6776 21.712 32.7443 22.032C33.8323 22.3307 34.8989 22.48 35.9443 22.48C37.0963 22.48 37.9069 22.3413 38.3763 22.064C38.8669 21.7867 39.1123 21.4027 39.1123 20.912C39.1123 20.5067 38.9203 20.208 38.5363 20.016C38.1736 19.8027 37.6829 19.6427 37.0642 19.536C36.4456 19.4293 35.7629 19.3227 35.0163 19.216C34.2909 19.1093 33.5549 18.9707 32.8083 18.8C32.0616 18.608 31.3789 18.3307 30.7603 17.968C30.1416 17.6053 29.6403 17.1147 29.2563 16.496C28.8936 15.8773 28.7122 15.0773 28.7122 14.096C28.7122 13.008 29.0216 12.048 29.6403 11.216C30.2803 10.384 31.1976 9.73333 32.3923 9.264C33.5869 8.77333 35.0163 8.528 36.6803 8.528C37.8536 8.528 39.0483 8.656 40.2643 8.912C41.4803 9.168 42.4936 9.54133 43.3043 10.032L41.6403 13.584C40.8083 13.0933 39.9656 12.7627 39.1123 12.592C38.2803 12.4 37.4696 12.304 36.6803 12.304C35.5709 12.304 34.7603 12.4533 34.2483 12.752C33.7363 13.0507 33.4803 13.4347 33.4803 13.904C33.4803 14.3307 33.6616 14.6507 34.0243 14.864C34.4083 15.0773 34.9096 15.248 35.5283 15.376C36.1469 15.504 36.8189 15.6213 37.5443 15.728C38.2909 15.8133 39.0376 15.952 39.7843 16.144C40.5309 16.336 41.2029 16.6133 41.8003 16.976C42.4189 17.3173 42.9203 17.7973 43.3043 18.416C43.6883 19.0133 43.8803 19.8027 43.8803 20.784C43.8803 21.8507 43.5603 22.8 42.9203 23.632C42.2803 24.4427 41.3523 25.0827 40.1363 25.552C38.9416 26.0213 37.4803 26.256 35.7523 26.256Z" fill="#00B6CC"/>
</svg>
