<svg width="119" height="33" viewBox="0 0 119 33" fill="none" xmlns="http://www.w3.org/2000/svg">
<path d="M0.88 32V10.48H7.12V32H0.88ZM4 7.48C2.85333 7.48 1.92 7.14667 1.2 6.48C0.48 5.81333 0.12 4.98666 0.12 4C0.12 3.01333 0.48 2.18667 1.2 1.52C1.92 0.853331 2.85333 0.519998 4 0.519998C5.14667 0.519998 6.08 0.839998 6.8 1.48C7.52 2.09333 7.88 2.89333 7.88 3.88C7.88 4.92 7.52 5.78667 6.8 6.48C6.10667 7.14667 5.17333 7.48 4 7.48ZM19.1113 32.48C17.1646 32.48 15.2313 32.2267 13.3112 31.72C11.4179 31.1867 9.79125 30.44 8.43125 29.48L10.9913 24.52C12.0579 25.2933 13.2846 25.9067 14.6713 26.36C16.0846 26.8133 17.5113 27.04 18.9513 27.04C20.5779 27.04 21.8579 26.72 22.7913 26.08C23.7246 25.44 24.1913 24.5467 24.1913 23.4C24.1913 22.68 24.0046 22.04 23.6313 21.48C23.2579 20.92 22.5913 20.4933 21.6313 20.2C20.6979 19.9067 19.3779 19.76 17.6713 19.76H10.5113L11.9513 4H29.0313V9.2H14.2713L17.6313 6.24L16.6313 17.48L13.2713 14.52H19.1913C21.9646 14.52 24.1913 14.9067 25.8713 15.68C27.5779 16.4267 28.8179 17.4533 29.5913 18.76C30.3646 20.0667 30.7513 21.5467 30.7513 23.2C30.7513 24.8533 30.3379 26.3867 29.5113 27.8C28.6846 29.1867 27.4046 30.32 25.6713 31.2C23.9646 32.0533 21.7779 32.48 19.1113 32.48ZM42.3403 32.48C40.1003 32.48 37.9536 32.1867 35.9003 31.6C33.847 30.9867 32.1936 30.2 30.9403 29.24L33.1403 24.36C34.3403 25.2133 35.7536 25.92 37.3803 26.48C39.0336 27.0133 40.7003 27.28 42.3803 27.28C43.6603 27.28 44.687 27.16 45.4603 26.92C46.2603 26.6533 46.847 26.2933 47.2203 25.84C47.5936 25.3867 47.7803 24.8667 47.7803 24.28C47.7803 23.5333 47.487 22.9467 46.9003 22.52C46.3136 22.0667 45.5403 21.7067 44.5803 21.44C43.6203 21.1467 42.5536 20.88 41.3803 20.64C40.2336 20.3733 39.0736 20.0533 37.9003 19.68C36.7536 19.3067 35.7003 18.8267 34.7403 18.24C33.7803 17.6533 32.9936 16.88 32.3803 15.92C31.7936 14.96 31.5003 13.7333 31.5003 12.24C31.5003 10.64 31.927 9.18667 32.7803 7.88C33.6603 6.54666 34.967 5.49333 36.7003 4.72C38.4603 3.92 40.6603 3.52 43.3003 3.52C45.0603 3.52 46.7936 3.73333 48.5003 4.16C50.207 4.56 51.7136 5.17333 53.0203 6L51.0203 10.92C49.7136 10.1733 48.407 9.62667 47.1003 9.28C45.7936 8.90667 44.5136 8.72 43.2603 8.72C42.007 8.72 40.9803 8.86667 40.1803 9.16C39.3803 9.45333 38.807 9.84 38.4603 10.32C38.1136 10.7733 37.9403 11.3067 37.9403 11.92C37.9403 12.64 38.2336 13.2267 38.8203 13.68C39.407 14.1067 40.1803 14.4533 41.1403 14.72C42.1003 14.9867 43.1536 15.2533 44.3003 15.52C45.4736 15.7867 46.6336 16.0933 47.7803 16.44C48.9536 16.7867 50.0203 17.2533 50.9803 17.84C51.9403 18.4267 52.7136 19.2 53.3003 20.16C53.9136 21.12 54.2203 22.3333 54.2203 23.8C54.2203 25.3733 53.7803 26.8133 52.9003 28.12C52.0203 29.4267 50.7003 30.48 48.9403 31.28C47.207 32.08 45.007 32.48 42.3403 32.48ZM59.3494 32.32C58.2827 32.32 57.3627 31.96 56.5894 31.24C55.8427 30.4933 55.4694 29.5467 55.4694 28.4C55.4694 27.2533 55.8427 26.3333 56.5894 25.64C57.3627 24.92 58.2827 24.56 59.3494 24.56C60.4427 24.56 61.3627 24.92 62.1094 25.64C62.856 26.3333 63.2294 27.2533 63.2294 28.4C63.2294 29.5467 62.856 30.4933 62.1094 31.24C61.3627 31.96 60.4427 32.32 59.3494 32.32ZM65.8981 32V4H78.0181C80.5248 4 82.6848 4.41333 84.4981 5.24C86.3115 6.04 87.7115 7.2 88.6981 8.72C89.6848 10.24 90.1781 12.0533 90.1781 14.16C90.1781 16.24 89.6848 18.04 88.6981 19.56C87.7115 21.0533 86.3115 22.2 84.4981 23C82.6848 23.8 80.5248 24.2 78.0181 24.2H69.4981L72.3781 21.36V32H65.8981ZM83.6981 32L76.6981 21.84H83.6181L90.6981 32H83.6981ZM72.3781 22.08L69.4981 19.04H77.6581C79.6581 19.04 81.1515 18.6133 82.1381 17.76C83.1248 16.88 83.6181 15.68 83.6181 14.16C83.6181 12.6133 83.1248 11.4133 82.1381 10.56C81.1515 9.70667 79.6581 9.28 77.6581 9.28H69.4981L72.3781 6.2V22.08ZM105.752 32.48C101.779 32.48 98.6722 31.3733 96.4322 29.16C94.1922 26.9467 93.0722 23.7867 93.0722 19.68V4H99.5522V19.44C99.5522 22.1067 100.099 24.0267 101.192 25.2C102.286 26.3733 103.819 26.96 105.792 26.96C107.766 26.96 109.299 26.3733 110.392 25.2C111.486 24.0267 112.032 22.1067 112.032 19.44V4H118.432V19.68C118.432 23.7867 117.312 26.9467 115.072 29.16C112.832 31.3733 109.726 32.48 105.752 32.48Z" fill="#00B6CC"/>
</svg>
