<svg width="129" height="33" viewBox="0 0 129 33" fill="none" xmlns="http://www.w3.org/2000/svg">
<path d="M0.88 32V10.48H7.12V32H0.88ZM4 7.48C2.85333 7.48 1.92 7.14667 1.2 6.48C0.48 5.81333 0.12 4.98666 0.12 4C0.12 3.01333 0.48 2.18667 1.2 1.52C1.92 0.853331 2.85333 0.519998 4 0.519998C5.14667 0.519998 6.08 0.839998 6.8 1.48C7.52 2.09333 7.88 2.89333 7.88 3.88C7.88 4.92 7.52 5.78667 6.8 6.48C6.10667 7.14667 5.17333 7.48 4 7.48ZM21.1113 32.48C19.1646 32.48 17.2313 32.2267 15.3112 31.72C13.4179 31.1867 11.7913 30.44 10.4313 29.48L12.9913 24.52C14.0579 25.2933 15.2846 25.9067 16.6713 26.36C18.0846 26.8133 19.5113 27.04 20.9513 27.04C22.5779 27.04 23.8579 26.72 24.7913 26.08C25.7246 25.44 26.1913 24.5467 26.1913 23.4C26.1913 22.68 26.0046 22.04 25.6313 21.48C25.2579 20.92 24.5913 20.4933 23.6313 20.2C22.6979 19.9067 21.3779 19.76 19.6713 19.76H12.5113L13.9513 4H31.0313V9.2H16.2713L19.6313 6.24L18.6313 17.48L15.2713 14.52H21.1913C23.9646 14.52 26.1913 14.9067 27.8713 15.68C29.5779 16.4267 30.8179 17.4533 31.5913 18.76C32.3646 20.0667 32.7513 21.5467 32.7513 23.2C32.7513 24.8533 32.3379 26.3867 31.5113 27.8C30.6846 29.1867 29.4046 30.32 27.6713 31.2C25.9646 32.0533 23.7779 32.48 21.1113 32.48ZM46.3403 32.48C44.1003 32.48 41.9536 32.1867 39.9003 31.6C37.847 30.9867 36.1936 30.2 34.9403 29.24L37.1403 24.36C38.3403 25.2133 39.7536 25.92 41.3803 26.48C43.0336 27.0133 44.7003 27.28 46.3803 27.28C47.6603 27.28 48.687 27.16 49.4603 26.92C50.2603 26.6533 50.847 26.2933 51.2203 25.84C51.5936 25.3867 51.7803 24.8667 51.7803 24.28C51.7803 23.5333 51.487 22.9467 50.9003 22.52C50.3136 22.0667 49.5403 21.7067 48.5803 21.44C47.6203 21.1467 46.5536 20.88 45.3803 20.64C44.2336 20.3733 43.0736 20.0533 41.9003 19.68C40.7536 19.3067 39.7003 18.8267 38.7403 18.24C37.7803 17.6533 36.9936 16.88 36.3803 15.92C35.7936 14.96 35.5003 13.7333 35.5003 12.24C35.5003 10.64 35.927 9.18667 36.7803 7.88C37.6603 6.54666 38.967 5.49333 40.7003 4.72C42.4603 3.92 44.6603 3.52 47.3003 3.52C49.0603 3.52 50.7936 3.73333 52.5003 4.16C54.207 4.56 55.7136 5.17333 57.0203 6L55.0203 10.92C53.7136 10.1733 52.407 9.62667 51.1003 9.28C49.7936 8.90667 48.5136 8.72 47.2603 8.72C46.007 8.72 44.9803 8.86667 44.1803 9.16C43.3803 9.45333 42.807 9.84 42.4603 10.32C42.1136 10.7733 41.9403 11.3067 41.9403 11.92C41.9403 12.64 42.2336 13.2267 42.8203 13.68C43.407 14.1067 44.1803 14.4533 45.1403 14.72C46.1003 14.9867 47.1536 15.2533 48.3003 15.52C49.4736 15.7867 50.6336 16.0933 51.7803 16.44C52.9536 16.7867 54.0203 17.2533 54.9803 17.84C55.9403 18.4267 56.7136 19.2 57.3003 20.16C57.9136 21.12 58.2203 22.3333 58.2203 23.8C58.2203 25.3733 57.7803 26.8133 56.9003 28.12C56.0203 29.4267 54.7003 30.48 52.9403 31.28C51.207 32.08 49.007 32.48 46.3403 32.48ZM65.3494 32.32C64.2827 32.32 63.3627 31.96 62.5894 31.24C61.8427 30.4933 61.4694 29.5467 61.4694 28.4C61.4694 27.2533 61.8427 26.3333 62.5894 25.64C63.3627 24.92 64.2827 24.56 65.3494 24.56C66.4427 24.56 67.3627 24.92 68.1094 25.64C68.856 26.3333 69.2294 27.2533 69.2294 28.4C69.2294 29.5467 68.856 30.4933 68.1094 31.24C67.3627 31.96 66.4427 32.32 65.3494 32.32Z" fill="#00B6CC"/>
<path d="M73.8981 32V4H86.0181C88.5248 4 90.6848 4.41333 92.4981 5.24C94.3115 6.04 95.7115 7.2 96.6981 8.72C97.6848 10.24 98.1781 12.0533 98.1781 14.16C98.1781 16.24 97.6848 18.04 96.6981 19.56C95.7115 21.0533 94.3115 22.2 92.4981 23C90.6848 23.8 88.5248 24.2 86.0181 24.2H77.4981L80.3781 21.36V32H73.8981ZM91.6981 32L84.6981 21.84H91.6181L98.6981 32H91.6981ZM80.3781 22.08L77.4981 19.04H85.6581C87.6581 19.04 89.1515 18.6133 90.1381 17.76C91.1248 16.88 91.6181 15.68 91.6181 14.16C91.6181 12.6133 91.1248 11.4133 90.1381 10.56C89.1515 9.70667 87.6581 9.28 85.6581 9.28H77.4981L80.3781 6.2V22.08ZM115.752 32.48C111.779 32.48 108.672 31.3733 106.432 29.16C104.192 26.9467 103.072 23.7867 103.072 19.68V4H109.552V19.44C109.552 22.1067 110.099 24.0267 111.192 25.2C112.286 26.3733 113.819 26.96 115.792 26.96C117.766 26.96 119.299 26.3733 120.392 25.2C121.486 24.0267 122.032 22.1067 122.032 19.44V4H128.432V19.68C128.432 23.7867 127.312 26.9467 125.072 29.16C122.832 31.3733 119.726 32.48 115.752 32.48Z" fill="black"/>
</svg>
