<!-- icon666.com - MILLIONS OF FREE VECTOR ICONS --><svg version="1.1" id="Capa_1" xmlns="http://www.w3.org/2000/svg" xmlns:xlink="http://www.w3.org/1999/xlink" x="0px" y="0px" viewBox="0 0 295.44 295.44" style="enable-background:new 0 0 295.44 295.44;" xml:space="preserve"><path d="M147.72,4.188L0,291.252h295.44L147.72,4.188z M80.107,252.715v-20.91c0.261-0.02,0.525-0.031,0.791-0.031h13.591 c-12.699-28.686-5.002-40.711,4.9-51.294c3.669-3.921,5.451-5.962,5.863-9.468c0.46-3.911-0.659-11.738-8.604-26.818l18.528-9.761 c18.621,35.347,10.391,48.719-0.496,60.354c-3.669,3.921-5.451,5.962-5.863,9.469c-0.46,3.911,0.658,11.738,8.603,26.818 c0.121,0.23,0.222,0.466,0.325,0.701h17.253c-12.699-28.686-5.002-40.711,4.9-51.294c3.669-3.921,5.451-5.962,5.863-9.468 c0.46-3.911-0.658-11.738-8.604-26.818l18.528-9.761c18.621,35.347,10.391,48.719-0.496,60.354 c-3.669,3.921-5.451,5.962-5.863,9.469c-0.46,3.911,0.658,11.738,8.604,26.818c0.121,0.23,0.222,0.466,0.325,0.701h17.253 c-12.699-28.686-5.002-40.711,4.9-51.294c3.669-3.921,5.451-5.962,5.863-9.468c0.46-3.911-0.658-11.738-8.603-26.818l18.528-9.761 c18.621,35.347,10.391,48.719-0.496,60.354c-3.669,3.921-5.451,5.962-5.863,9.469c-0.46,3.911,0.658,11.738,8.604,26.818 c0.121,0.23,0.222,0.466,0.325,0.701h14.478v20.939c-0.018,0,0.965,0.002,0.947,0.002H80.107z" fill="#000000" style="fill: rgb(0, 182, 204);"></path></svg>