<!-- icon666.com - MILLIONS OF FREE VECTOR ICONS --><svg viewBox="-24 0 496 496" xmlns="http://www.w3.org/2000/svg"><path d="m390.5625 496h-306.71875c-2.664062 0-5.160156-1.328125-6.648438-3.542969-1.488281-2.21875-1.769531-5.03125-.753906-7.503906l39.640625-96.289063c1.234375-3 4.160157-4.953124 7.402344-4.953124h227.445313c3.242187 0 6.167968 1.953124 7.402343 4.953124l39.632813 96.289063c1.015625 2.472656.734375 5.277344-.753906 7.503906-1.488282 2.222657-3.976563 3.542969-6.648438 3.542969zm-294.765625-16h282.832031l-33.050781-80.289062h-216.734375zm0 0" fill="#000000" style="fill: rgb(0, 182, 204);"></path><path d="m281.851562 430.054688h-40v-16h40zm-79.992187 0h-40v-16h40zm0 0" fill="#000000" style="fill: rgb(0, 182, 204);"></path><path d="m153.050781 444.808594h165.28125v16h-165.28125zm0 0" fill="#000000" style="fill: rgb(0, 182, 204);"></path><path d="m254.972656 278.246094h16v45.523437h-16zm0 0" fill="#000000" style="fill: rgb(0, 182, 204);"></path><path d="m184.929688 316.03125h107.363281v16h-107.363281zm0 0" fill="#000000" style="fill: rgb(0, 182, 204);"></path><path d="m206.25 278.246094h16v45.523437h-16zm0 0" fill="#000000" style="fill: rgb(0, 182, 204);"></path><path d="m126.8125 181.105469c-1.730469 0-3.433594-.433594-4.984375-1.28125-3.34375-1.832031-5.425781-5.328125-5.425781-9.121094v-9.222656h-101.277344c-8.480469 0-15.1132812-6.632813-15.1132812-15.097657v-18.628906c-.1523438-3.882812 1.2382812-7.570312 3.9257812-10.410156 2.808594-2.960938 6.808594-4.664062 10.984375-4.664062l101.488281-.128907v-9.230469c.28125-4.359374 2.433594-7.640624 5.777344-9.328124 3.320312-1.664063 7.207031-1.457032 10.398438.582031l49.464843 33.832031c3.039063 2.402344 4.519531 5.410156 4.519531 8.59375 0 3.191406-1.480468 6.199219-4.046874 8.257812l-49.71875 34.039063c-1.898438 1.207031-3.960938 1.808594-5.992188 1.808594zm-110.808594-35.625h116.390625v14.710937l33.878907-23.183594-33.886719-23.167968.007812 14.710937-116.390625.128907zm0 0" fill="#000000" style="fill: rgb(0, 182, 204);"></path><path d="m439.996094 286.175781h-402.769532c-4.414062 0-8-3.574219-8-8v-124.695312c0-4.425781 3.585938-8 8-8 4.417969 0 8 3.574219 8 8v116.703125h386.769532v-254.183594h-386.769532v104.65625c0 4.421875-3.582031 8-8 8-4.414062 0-8-3.578125-8-8v-112.65625c0-4.425781 3.585938-8 8-8h402.769532c4.421875 0 8 3.574219 8 8v270.175781c0 4.425781-3.578125 8-8 8zm0 0" fill="#000000" style="fill: rgb(0, 182, 204);"></path><path d="m406.15625 253.550781h-335.082031c-4.414063 0-8-3.574219-8-8v-92.078125c0-4.425781 3.585937-8 8-8 4.417969 0 8 3.574219 8 8v84.078125h319.082031v-188.933593h-319.082031v71.992187c0 4.421875-3.582031 8-8 8-4.414063 0-8-3.578125-8-8v-79.992187c0-4.425782 3.585937-8 8-8h335.082031c4.421875 0 8 3.574218 8 8v204.933593c0 4.425781-3.585938 8-8 8zm0 0" fill="#000000" style="fill: rgb(0, 182, 204);"></path></svg>