<!-- icon666.com - MILLIONS OF FREE VECTOR ICONS --><svg xmlns="http://www.w3.org/2000/svg" id="Layer_1" data-name="Layer 1" viewBox="0 0 64 64"><path d="M19.926,17.768l-.756.418a2.239,2.239,0,0,0-1.1,1.389,2.187,2.187,0,0,0,.244,1.709l2.094,3.466a2.352,2.352,0,0,0,3.123.816l.766-.422a.393.393,0,0,1,.413.053,12.123,12.123,0,0,0,2.662,1.477c.111.045.223.137.223.241v.836A2.281,2.281,0,0,0,29.906,30h4.188A2.281,2.281,0,0,0,36.4,27.751v-.836c0-.1.112-.2.223-.241A12.115,12.115,0,0,0,39.286,25.2a.394.394,0,0,1,.413-.052l.764.422a2.353,2.353,0,0,0,3.124-.816l2.094-3.466a2.187,2.187,0,0,0,.244-1.709,2.239,2.239,0,0,0-1.095-1.389l-.757-.418a.226.226,0,0,1-.136-.2,10.984,10.984,0,0,0,0-3.143.226.226,0,0,1,.137-.2l.756-.418a2.239,2.239,0,0,0,1.095-1.389,2.187,2.187,0,0,0-.244-1.709L43.587,7.25a2.349,2.349,0,0,0-3.123-.816l-.766.422a.389.389,0,0,1-.413-.053,12.123,12.123,0,0,0-2.662-1.477c-.111-.045-.223-.137-.223-.241V4.249A2.281,2.281,0,0,0,34.094,2H29.906A2.281,2.281,0,0,0,27.6,4.249v.836c0,.1-.112.2-.223.241A12.115,12.115,0,0,0,24.714,6.8a.392.392,0,0,1-.413.052l-.764-.422a2.349,2.349,0,0,0-3.124.816l-2.094,3.466a2.187,2.187,0,0,0-.244,1.709,2.239,2.239,0,0,0,1.1,1.389l.757.418a.226.226,0,0,1,.136.2,10.984,10.984,0,0,0,0,3.143A.226.226,0,0,1,19.926,17.768Zm.211,2.169.756-.418a2.221,2.221,0,0,0,1.15-2.232,8.952,8.952,0,0,1,0-2.574,2.221,2.221,0,0,0-1.15-2.232l-.756-.418a.253.253,0,0,1-.13-.155.2.2,0,0,1,.024-.158l2.094-3.466a.342.342,0,0,1,.445-.1l.764.422a2.4,2.4,0,0,0,2.562-.19,10.179,10.179,0,0,1,2.225-1.235,2.28,2.28,0,0,0,1.479-2.1V4.249A.286.286,0,0,1,29.906,4h4.188a.286.286,0,0,1,.306.249v.836a2.28,2.28,0,0,0,1.479,2.1A10.186,10.186,0,0,1,38.1,8.416a2.391,2.391,0,0,0,2.562.191l.765-.422a.341.341,0,0,1,.445.1l2.094,3.466a.2.2,0,0,1,.024.158.253.253,0,0,1-.13.155l-.756.418a2.221,2.221,0,0,0-1.15,2.232,8.952,8.952,0,0,1,0,2.574,2.221,2.221,0,0,0,1.15,2.232l.756.418a.253.253,0,0,1,.13.155.2.2,0,0,1-.024.158l-2.094,3.466a.342.342,0,0,1-.445.1l-.764-.422a2.4,2.4,0,0,0-2.562.19,10.179,10.179,0,0,1-2.225,1.235,2.28,2.28,0,0,0-1.479,2.1v.836a.286.286,0,0,1-.306.249H29.906a.286.286,0,0,1-.306-.249v-.836a2.28,2.28,0,0,0-1.479-2.1A10.186,10.186,0,0,1,25.9,23.584a2.448,2.448,0,0,0-1.444-.476,2.307,2.307,0,0,0-1.118.285l-.765.422a.34.34,0,0,1-.445-.1L20.031,20.25a.2.2,0,0,1-.024-.158A.253.253,0,0,1,20.137,19.937Z" fill="#000000" style="fill: rgb(0, 182, 204);"></path><path d="M32,23a7,7,0,1,0-7-7A7.008,7.008,0,0,0,32,23Zm0-12a5,5,0,1,1-5,5A5.006,5.006,0,0,1,32,11Z" fill="#000000" style="fill: rgb(0, 182, 204);"></path><path d="M56.625,11.219A1,1,0,0,0,55,12v3H48v2h7v3a1,1,0,0,0,1.625.781l5-4a1,1,0,0,0,0-1.562Zm.375,6.7V14.081L59.4,16Z" fill="#000000" style="fill: rgb(0, 182, 204);"></path><path d="M7.375,20.781A1,1,0,0,0,9,20V17h7V15H9V12a1,1,0,0,0-1.625-.781l-5,4a1,1,0,0,0,0,1.562ZM7,14.081v3.838L4.6,16Z" fill="#000000" style="fill: rgb(0, 182, 204);"></path><path d="M40.394,49.081A1,1,0,0,0,39,50V62h2V51.517l5.6,2.4a1,1,0,0,0,1.1-.212l8-8a1,1,0,0,0-.152-1.539l-3-2a1,1,0,0,0-1.2.064l-5.5,4.581L41.3,44.529A5.02,5.02,0,0,0,39.059,44H34.391a6,6,0,1,0-4.782,0H24.947a5.029,5.029,0,0,0-2.235.527l-4.574,2.286-5.5-4.581a1,1,0,0,0-1.194-.065l-3,2a1,1,0,0,0-.152,1.54l8,8a1,1,0,0,0,1.1.212l5.61-2.4V62h2V50a1,1,0,0,0-1.394-.919l-6.381,2.733-6.658-6.658,1.366-.91,5.427,4.522a1,1,0,0,0,1.087.127l5.159-2.579A3.017,3.017,0,0,1,24.947,46H30.78l-1.76,8.8a1,1,0,0,0,.148.751l2,3a1,1,0,0,0,1.664,0l2-3a1,1,0,0,0,.148-.751L33.22,46h5.839a3.009,3.009,0,0,1,1.342.317L45.553,48.9a1,1,0,0,0,1.087-.127l5.426-4.521,1.361.908-6.659,6.659ZM32,56.2l-.938-1.407L32,50.1l.938,4.691Zm0-13.7a4,4,0,1,1,4-4A4,4,0,0,1,32,42.5Z" fill="#000000" style="fill: rgb(0, 182, 204);"></path></svg>