<!-- icon666.com - MILLIONS OF FREE VECTOR ICONS --><svg version="1.1" id="Capa_1" xmlns="http://www.w3.org/2000/svg" xmlns:xlink="http://www.w3.org/1999/xlink" x="0px" y="0px" viewBox="0 0 512 512" style="enable-background:new 0 0 512 512;" xml:space="preserve"><g><g><path d="M127.639,338.838V160.605c32.251-14.491,53.459-46.834,53.459-82.61c0-31.117-15.686-59.686-41.961-76.424 C137.524,0.545,135.643,0,133.732,0c-5.545,0-10.039,4.496-10.039,10.039v56.326L90.544,85.506l-33.139-19.14V10.039 c0-3.664-1.997-7.039-5.209-8.801c-3.214-1.763-7.132-1.634-10.222,0.333C29.361,9.603,18.836,20.73,11.533,33.75 C3.989,47.203,0,62.503,0,77.995c0,35.776,21.208,68.12,53.459,82.61v178.232C21.209,353.337,0,385.682,0,421.446 C0,471.377,40.618,512,90.544,512c49.931,0,90.554-40.623,90.554-90.554C181.097,385.682,159.889,353.337,127.639,338.838z M90.544,491.922c-38.855,0-70.465-31.614-70.465-70.475c0-29.711,18.805-56.387,46.796-66.381 c3.996-1.428,6.663-5.211,6.663-9.455V153.831c0-4.245-2.668-8.029-6.666-9.456c-27.988-9.985-46.793-36.66-46.793-66.38 c0-12.06,3.101-23.964,8.967-34.423c2.351-4.193,5.132-8.134,8.28-11.757v40.348c0,3.586,1.912,6.9,5.019,8.693l43.179,24.937 c3.107,1.794,6.934,1.795,10.04,0.001l43.189-24.937c3.106-1.793,5.02-5.108,5.02-8.694v-40.4 c11.016,12.645,17.247,28.934,17.247,46.234c0,29.72-18.804,56.395-46.793,66.38c-3.997,1.427-6.666,5.211-6.666,9.456V345.61 c0,4.244,2.667,8.027,6.663,9.455c27.989,9.994,46.796,36.67,46.796,66.381C161.019,460.307,129.403,491.922,90.544,491.922z" fill="#000000" style="fill: rgb(0, 182, 204);"></path></g></g><g><g><path d="M134.263,390.414l-38.701-22.337c-3.106-1.792-6.932-1.793-10.038,0.001l-38.691,22.337 c-3.106,1.793-5.02,5.108-5.02,8.694v44.685c0,3.586,1.913,6.901,5.02,8.694l38.691,22.337c1.553,0.898,3.286,1.345,5.02,1.345 c1.733,0,3.466-0.449,5.019-1.344l38.701-22.337c3.107-1.793,5.021-5.108,5.021-8.695v-44.685 C139.284,395.522,137.371,392.207,134.263,390.414z M119.207,437.996l-28.662,16.543l-28.653-16.542v-33.092l28.653-16.542 l28.662,16.543V437.996z" fill="#000000" style="fill: rgb(0, 182, 204);"></path></g></g><g><g><path d="M288.125,261.622h-22.086V248.31h22.086c5.544,0,10.039-4.496,10.039-10.039s-4.496-10.039-10.039-10.039h-22.086V108.55 l22.191-96.256c0.688-2.981-0.021-6.112-1.927-8.506C284.399,1.395,281.507,0,278.448,0h-44.885c-3.059,0-5.951,1.394-7.856,3.788 c-1.904,2.393-2.614,5.525-1.927,8.505l22.182,96.258v119.681h-22.086c-5.545,0-10.039,4.496-10.039,10.039 s4.495,10.039,10.039,10.039h22.086v13.312h-22.086c-5.545,0-10.039,4.496-10.039,10.039v230.3 c0,5.544,4.495,10.039,10.039,10.039h64.251c5.544,0,10.039-4.496,10.039-10.039v-230.3 C298.165,266.118,293.669,261.622,288.125,261.622z M245.961,491.922h-12.047V281.7h12.047V491.922z M256.002,62.712 l-9.824-42.634h19.654L256.002,62.712z M278.086,491.922h-12.047V281.7h12.047V491.922z" fill="#000000" style="fill: rgb(0, 182, 204);"></path></g></g><g><g><path d="M492.006,20.001C479.121,7.103,461.977,0,443.733,0c-31.252,0-60.151,11.131-83.572,32.189 c-17.625,15.846-26.005,31.786-26.353,32.457c-1.614,3.112-1.489,6.841,0.331,9.838c1.82,2.996,5.074,4.826,8.58,4.826h90.975 v189.741h-45.327v-47.486h13.202c5.544,0,10.039-4.496,10.039-10.039c0-5.544-4.496-10.039-10.039-10.039h-46.492 c-5.544,0-10.039,4.496-10.039,10.039c0,5.544,4.496,10.039,10.039,10.039h13.211v47.486h-25.57 c-5.544,0-10.039,4.496-10.039,10.039v59.583c0,5.544,4.496,10.039,10.039,10.039h25.57v62.695h-13.211 c-5.544,0-10.039,4.496-10.039,10.039c0,5.544,4.496,10.039,10.039,10.039h13.211v10.742h-13.211 c-5.544,0-10.039,4.496-10.039,10.039s4.496,10.039,10.039,10.039h13.211v39.655c0,5.544,4.496,10.039,10.039,10.039 c5.544,0,10.039-4.496,10.039-10.039v-39.655h13.203c5.544,0,10.039-4.496,10.039-10.039c0-5.544-4.496-10.039-10.039-10.039 h-13.202v-10.742h13.202c5.544,0,10.039-4.496,10.039-10.039s-4.496-10.039-10.039-10.039h-13.202v-62.695h55.366 c37.642,0,68.267-30.625,68.267-68.267V68.267C512,50.023,504.897,32.879,492.006,20.001z M368.289,328.634h-15.531v-39.504 h15.531V328.634z M491.922,280.445c0,26.57-21.616,48.188-48.188,48.188h-55.366v-39.504h55.366 c5.544,0,10.039-4.496,10.039-10.039v-30.78h38.149V280.445z M491.922,228.232h-38.149V69.271c0-5.544-4.496-10.039-10.039-10.039 H361.93c3.272-3.922,7.334-8.277,12.207-12.603c19.848-17.618,43.265-26.55,69.597-26.55c12.876,0,24.976,5.012,34.075,14.119 c9.102,9.094,14.113,21.193,14.113,34.069V228.232z" fill="#000000" style="fill: rgb(0, 182, 204);"></path></g></g><g><g><path d="M462.807,122.295v55.734c0,12.919,20.078,12.942,20.078,0v-55.734C482.885,109.375,462.807,109.354,462.807,122.295z" fill="#000000" style="fill: rgb(0, 182, 204);"></path></g></g><g><g><path d="M472.845,77.768c-12.919,0-12.941,20.078,0,20.078C485.765,97.846,485.786,77.768,472.845,77.768z" fill="#000000" style="fill: rgb(0, 182, 204);"></path></g></g></svg>